<svg width="7482" height="1628" viewBox="0 0 7482 1628" fill="none" xmlns="http://www.w3.org/2000/svg">
<path d="M5753.01 329.409C5766.26 329.409 5777.01 340.154 5777.01 353.409V1140.29C5777.01 1153.54 5766.26 1164.29 5753.01 1164.29H5678.98C5665.73 1164.29 5654.98 1153.54 5654.98 1140.29V353.409C5654.98 340.154 5665.73 329.409 5678.98 329.409H5753.01Z" fill="#3C2245"/>
<path d="M5972.36 1164.29C5959.1 1164.29 5948.36 1153.54 5948.36 1140.29V562.129C5948.36 548.874 5959.1 538.129 5972.36 538.129H6046.38C6059.64 538.129 6070.38 548.874 6070.38 562.129V1140.29C6070.38 1153.54 6059.64 1164.29 6046.38 1164.29H5972.36ZM6009.98 441.514C5988.76 441.514 5970.53 434.448 5955.29 420.316C5940.33 405.913 5932.85 388.791 5932.85 368.952C5932.85 348.841 5940.33 331.719 5955.29 317.587C5970.53 303.183 5988.76 295.981 6009.98 295.981C6031.2 295.981 6049.3 303.183 6064.26 317.587C6079.5 331.719 6087.11 348.841 6087.11 368.952C6087.11 388.791 6079.5 405.913 6064.26 420.316C6049.3 434.448 6031.2 441.514 6009.98 441.514Z" fill="#3C2245"/>
<path d="M6363.76 792.506V1140.29C6363.76 1153.54 6353.01 1164.29 6339.76 1164.29H6265.73C6252.47 1164.29 6241.73 1153.54 6241.73 1140.29V562.129C6241.73 548.874 6252.47 538.129 6265.73 538.129H6334.86C6348.11 538.129 6358.86 548.874 6358.86 562.129V635.359C6358.86 637.946 6360.95 640.043 6363.54 640.043V640.043C6365.41 640.043 6367.09 638.934 6367.86 637.236C6382.32 605.381 6404.49 579.683 6434.36 560.142C6465.38 540.031 6504.42 529.976 6551.49 529.976C6594.2 529.976 6631.61 538.944 6663.72 556.881C6695.82 574.546 6720.72 600.908 6738.4 635.966C6756.09 671.025 6764.93 714.372 6764.93 766.008V1140.29C6764.93 1153.54 6754.19 1164.29 6740.93 1164.29H6666.91C6653.65 1164.29 6642.91 1153.54 6642.91 1140.29V780.684C6642.91 735.298 6631.07 699.832 6607.4 674.286C6583.73 648.468 6551.22 635.559 6509.86 635.559C6481.56 635.559 6456.4 641.673 6434.36 653.903C6412.59 666.133 6395.32 684.07 6382.53 707.714C6370.01 731.086 6363.76 759.35 6363.76 792.506Z" fill="#3C2245"/>
<path d="M7088.65 911.299C7073.57 926.361 7047.8 915.762 7047.69 894.451L7047.27 817.953C7047.22 809.766 7053.85 803.105 7062.03 803.105V803.105C7066.1 803.105 7069.99 801.427 7072.78 798.467L7311.07 545.667C7315.6 540.856 7321.92 538.129 7328.53 538.129H7408.61C7429.66 538.129 7440.51 563.3 7426.05 578.607L7186.13 832.679C7181.84 837.22 7175.87 839.794 7169.63 839.794V839.794C7163.61 839.794 7157.84 842.182 7153.59 846.434L7088.65 911.299ZM6959.77 1164.29C6946.51 1164.29 6935.77 1153.54 6935.77 1140.29V353.409C6935.77 340.154 6946.51 329.409 6959.77 329.409H7033.8C7047.05 329.409 7057.8 340.154 7057.8 353.409V1140.29C7057.8 1153.54 7047.05 1164.29 7033.8 1164.29H6959.77ZM7343.6 1164.29C7336.07 1164.29 7328.97 1160.75 7324.44 1154.74L7119.66 883.251C7112.49 873.745 7113.38 860.418 7121.74 851.942L7171.78 801.227C7182.05 790.82 7199.16 791.935 7207.99 803.586L7452.24 1125.79C7464.22 1141.6 7452.94 1164.29 7433.11 1164.29H7343.6Z" fill="#3C2245"/>
<path d="M2204.55 1163.09C2142.32 1163.09 2088.73 1149.01 2043.8 1120.85C1999.15 1092.42 1964.82 1053.24 1940.82 1003.34C1916.82 953.433 1904.81 896.279 1904.81 831.875C1904.81 766.635 1917.09 709.062 1941.65 659.156C1966.21 608.972 2000.82 569.8 2045.47 541.641C2090.13 513.482 2142.74 499.402 2203.3 499.402C2252.14 499.402 2295.67 508.463 2333.91 526.585C2372.14 544.429 2402.98 569.521 2426.43 601.862C2445.21 627.469 2457.95 656.483 2464.66 688.906C2467.55 702.841 2456.33 715.196 2442.1 715.196H2366.13C2354.89 715.196 2345.36 707.295 2341.5 696.729C2333.34 674.35 2319.78 654.577 2300.84 637.41C2277.11 615.663 2245.3 604.79 2205.39 604.79C2170.5 604.79 2139.94 613.99 2113.71 632.391C2087.76 650.513 2067.52 676.442 2053.01 710.177C2038.5 743.634 2031.24 783.224 2031.24 828.948C2031.24 875.787 2038.36 916.213 2052.59 950.227C2066.82 984.241 2086.92 1010.59 2112.87 1029.27C2139.11 1047.95 2169.95 1057.29 2205.39 1057.29C2229.11 1057.29 2250.6 1052.97 2269.86 1044.32C2289.39 1035.4 2305.72 1022.72 2318.84 1006.27C2328.54 994.348 2336.13 980.674 2341.58 965.244C2345.31 954.694 2354.82 946.881 2366.01 946.881H2441.99C2456.26 946.881 2467.49 959.3 2464.53 973.259C2457.95 1004.28 2445.81 1032.57 2428.1 1058.12C2405.49 1090.74 2375.21 1116.39 2337.26 1135.07C2299.58 1153.75 2255.35 1163.09 2204.55 1163.09Z" fill="#DB2777"/>
<path d="M2797.06 1164.35C2756.31 1164.35 2719.47 1156.82 2686.54 1141.76C2653.61 1126.43 2627.51 1104.27 2608.26 1075.27C2589.28 1046.27 2579.79 1010.73 2579.79 968.628C2579.79 932.384 2586.77 902.552 2600.72 879.132C2614.68 855.713 2633.51 837.172 2657.24 823.511C2680.96 809.85 2707.47 799.534 2736.78 792.564C2766.08 785.594 2795.94 780.296 2826.36 776.672C2864.88 772.211 2896.13 768.587 2920.13 765.799C2944.14 762.732 2961.58 757.853 2972.46 751.161C2983.35 744.47 2988.79 733.597 2988.79 718.541V715.614C2988.79 679.091 2978.46 650.792 2957.81 630.718C2937.44 610.645 2907.02 600.608 2866.55 600.608C2824.41 600.608 2791.2 609.948 2766.92 628.627C2749.5 641.98 2735.98 656.434 2726.35 671.988C2720.17 681.977 2708.7 688.192 2697.24 685.585L2625.85 669.341C2611.82 666.149 2603.63 651.345 2609.77 638.329C2622.83 610.618 2639.77 587.45 2660.59 568.824C2687.66 544.568 2718.77 527.004 2753.94 516.13C2789.1 504.978 2826.08 499.402 2864.88 499.402C2890.55 499.402 2917.76 502.469 2946.51 508.603C2975.53 514.457 3002.6 525.331 3027.72 541.223C3053.12 557.114 3073.91 579.837 3090.1 609.39C3106.29 638.664 3114.38 676.721 3114.38 723.56V1126.13C3114.38 1139.38 3103.63 1150.13 3090.38 1150.13H3016.14C3002.88 1150.13 2992.14 1139.38 2992.14 1126.13V1065.41C2992.14 1063.7 2990.75 1062.31 2989.03 1062.31V1062.31C2987.86 1062.31 2986.79 1062.97 2986.24 1064.01C2978.16 1079.6 2966.31 1094.92 2950.69 1109.98C2934.51 1125.59 2913.72 1138.56 2888.32 1148.87C2862.92 1159.19 2832.5 1164.35 2797.06 1164.35ZM2824.27 1063.98C2858.88 1063.98 2888.46 1057.15 2913.02 1043.49C2937.86 1029.83 2956.7 1011.98 2969.53 989.956C2982.65 967.652 2989.21 943.814 2989.21 918.443V864.709C2989.21 853.977 2973.52 845.063 2963.25 848.185V848.185C2950.69 851.809 2936.32 855.016 2920.13 857.804C2903.95 860.313 2888.18 862.683 2872.83 864.913C2857.48 866.865 2844.64 868.538 2834.32 869.932C2810.04 872.998 2787.85 878.156 2767.75 885.405C2747.94 892.654 2732.03 903.109 2720.03 916.771C2708.31 930.153 2702.45 947.997 2702.45 970.301C2702.45 1001.25 2713.89 1024.67 2736.78 1040.56C2759.66 1056.17 2788.83 1063.98 2824.27 1063.98Z" fill="#DB2777"/>
<path d="M3312.47 1150.13C3299.21 1150.13 3288.47 1139.38 3288.47 1126.13V531.766C3288.47 518.511 3299.21 507.766 3312.47 507.766H3385.45C3398.7 507.766 3409.45 518.511 3409.45 531.766V605.907C3409.45 608.061 3411.2 609.808 3413.35 609.808V609.808C3415.02 609.808 3416.5 608.74 3417.07 607.165C3428.93 573.848 3449.28 547.546 3478.1 528.258C3507.97 508.184 3541.74 498.147 3579.41 498.147C3587.23 498.147 3596.44 498.426 3607.04 498.984C3608.65 499.066 3610.21 499.152 3611.71 499.24C3623.69 499.945 3632.58 510.024 3632.58 522.027V593.48C3632.58 607.155 3619.35 617.848 3605.79 616.081V616.081C3592.95 614.13 3580.11 613.154 3567.27 613.154C3537.69 613.154 3511.31 619.427 3488.15 631.973C3465.27 644.24 3447.13 661.387 3433.73 683.412C3420.33 705.159 3413.63 729.972 3413.63 757.853V1126.13C3413.63 1139.38 3402.89 1150.13 3389.63 1150.13H3312.47Z" fill="#DB2777"/>
<path d="M4002.37 1163.09C3939.02 1163.09 3884.46 1149.57 3838.69 1122.53C3793.2 1095.2 3758.03 1056.87 3733.19 1007.52C3708.64 957.894 3696.36 899.764 3696.36 833.13C3696.36 767.332 3708.64 709.341 3733.19 659.156C3758.03 608.972 3792.64 569.8 3837.01 541.641C3881.67 513.482 3933.86 499.402 3993.58 499.402C4029.86 499.402 4065.03 505.396 4099.08 517.385C4133.12 529.373 4163.68 548.193 4190.76 573.843C4217.83 599.492 4239.18 632.809 4254.81 673.794C4270.43 714.499 4278.25 763.986 4278.25 822.256V842.586C4278.25 855.841 4267.5 866.586 4254.25 866.586H3791.1C3777.85 866.586 3767.1 855.841 3767.1 842.586V796.908C3767.1 783.653 3777.85 772.908 3791.1 772.908H4131.59C4144.85 772.908 4155.76 762.131 4154.34 748.952C4151.83 725.685 4145.55 704.535 4135.5 685.503C4122.1 659.853 4103.26 639.64 4078.98 624.864C4054.98 610.087 4026.79 602.699 3994.42 602.699C3959.25 602.699 3928.55 611.342 3902.32 628.627C3876.37 645.634 3856.27 667.939 3842.04 695.54C3828.08 722.863 3821.11 752.555 3821.11 784.618V857.804C3821.11 900.739 3828.64 937.263 3843.71 967.373C3859.06 997.484 3880.41 1020.49 3907.76 1036.38C3935.11 1051.99 3967.07 1059.8 4003.63 1059.8C4027.35 1059.8 4048.98 1056.45 4068.52 1049.76C4088.05 1042.79 4104.94 1032.47 4119.17 1018.81C4128.87 1009.51 4137.01 998.713 4143.6 986.431C4149.07 976.219 4160.11 969.701 4171.51 971.755L4244.51 984.896C4258.37 987.391 4267.23 1001.3 4261.97 1014.37C4252.01 1039.08 4237.77 1061.34 4219.22 1081.13C4194.94 1107.05 4164.38 1127.27 4127.54 1141.76C4090.98 1155.98 4049.26 1163.09 4002.37 1163.09Z" fill="#DB2777"/>
<path d="M4701.63 1163.09C4638.28 1163.09 4583.71 1149.57 4537.94 1122.53C4492.45 1095.2 4457.29 1056.87 4432.45 1007.52C4407.89 957.894 4395.61 899.764 4395.61 833.13C4395.61 767.332 4407.89 709.341 4432.45 659.156C4457.29 608.972 4491.9 569.8 4536.27 541.641C4580.92 513.482 4633.11 499.402 4692.84 499.402C4729.12 499.402 4764.28 505.396 4798.33 517.385C4832.38 529.373 4862.94 548.193 4890.01 573.843C4917.08 599.492 4938.43 632.809 4954.06 673.794C4969.69 714.499 4977.5 763.986 4977.5 822.256V842.586C4977.5 855.841 4966.76 866.586 4953.5 866.586H4490.36C4477.1 866.586 4466.36 855.841 4466.36 842.586V796.908C4466.36 783.653 4477.1 772.908 4490.36 772.908H4830.85C4844.1 772.908 4855.01 762.131 4853.59 748.952C4851.08 725.685 4844.8 704.535 4834.75 685.503C4821.36 659.853 4802.52 639.64 4778.24 624.864C4754.24 610.087 4726.05 602.699 4693.67 602.699C4658.51 602.699 4627.81 611.342 4601.58 628.627C4575.62 645.634 4555.53 667.939 4541.29 695.54C4527.34 722.863 4520.36 752.555 4520.36 784.618V857.804C4520.36 900.739 4527.9 937.263 4542.97 967.373C4558.32 997.484 4579.67 1020.49 4607.02 1036.38C4634.37 1051.99 4666.32 1059.8 4702.88 1059.8C4726.61 1059.8 4748.24 1056.45 4767.77 1049.76C4787.31 1042.79 4804.19 1032.47 4818.43 1018.81C4828.12 1009.51 4836.26 998.713 4842.85 986.431C4848.33 976.219 4859.36 969.701 4870.77 971.755L4943.76 984.896C4957.62 987.391 4966.48 1001.3 4961.22 1014.37C4951.27 1039.08 4937.02 1061.34 4918.48 1081.13C4894.2 1107.05 4863.64 1127.27 4826.8 1141.76C4790.24 1155.98 4748.51 1163.09 4701.63 1163.09Z" fill="#DB2777"/>
<path d="M5147.75 1150.13C5134.5 1150.13 5123.75 1139.38 5123.75 1126.13V531.766C5123.75 518.511 5134.5 507.766 5147.75 507.766H5220.74C5233.99 507.766 5244.74 518.511 5244.74 531.766V605.907C5244.74 608.062 5246.48 609.808 5248.64 609.808V609.808C5250.31 609.808 5251.79 608.74 5252.35 607.165C5264.22 573.848 5284.57 547.546 5313.39 528.258C5343.25 508.184 5377.02 498.147 5414.7 498.147C5422.51 498.147 5431.72 498.426 5442.33 498.984C5443.94 499.066 5445.49 499.152 5447 499.24C5458.98 499.945 5467.86 510.024 5467.86 522.027V593.48C5467.86 607.155 5454.63 617.848 5441.07 616.081V616.081C5428.23 614.13 5415.4 613.154 5402.56 613.154C5372.98 613.154 5346.6 619.427 5323.44 631.973C5300.55 644.24 5282.41 661.387 5269.02 683.412C5255.62 705.159 5248.92 729.972 5248.92 757.853V1126.13C5248.92 1139.38 5238.18 1150.13 5224.92 1150.13H5147.75Z" fill="#DB2777"/>
<path d="M805.663 1335.64C526.123 1335.64 299.513 1103.46 299.513 817.051C299.513 530.638 526.123 298.457 805.663 298.457C1085.2 298.457 1311.81 530.638 1311.81 817.051C1311.81 1103.46 1085.2 1335.64 805.663 1335.64Z" fill="#DB2777"/>
<path d="M794.466 0.00322906C1087.81 -0.856593 1357.09 170.063 1496.22 432.493H1345.59C1223.73 243.93 1013.1 135.233 794.466 132.401C427.062 132.401 129.221 437.565 129.221 814.002C129.221 1190.44 427.062 1495.6 794.466 1495.6C1045.65 1495.73 1283.21 1344.88 1392.44 1112.58L1505.13 1156.98C1380.82 1470.07 1123.95 1623.72 794.466 1628C355.693 1628 0 1263.56 0 814.002C0 364.441 355.693 0.00322906 794.466 0.00322906Z" fill="#DB2777"/>
<path d="M1542.51 937.909C1470.99 937.909 1413.02 878.509 1413.02 805.24C1413.02 731.965 1470.99 672.565 1542.51 672.565C1614.02 672.565 1672 731.965 1672 805.24C1672 878.509 1614.02 937.909 1542.51 937.909Z" fill="#3C2245"/>
<path d="M1515.41 1241.25L1317.56 1173.9L1481.72 1009.02" fill="#DB2777"/>
<path d="M1310.48 437.886L1502.76 355.324L1484.91 590.147" fill="#DB2777"/>
<path d="M681.484 1015.62C659.748 1015.62 640.097 1011.82 622.529 1004.23C604.962 996.506 591.042 985.335 580.769 970.721C570.646 956.107 565.584 938.192 565.584 916.974C565.584 898.707 569.306 883.671 576.75 871.868C584.194 860.065 594.243 850.72 606.897 843.835C619.552 836.95 633.695 831.751 649.327 828.238C664.959 824.725 680.889 822.055 697.116 820.228C717.661 817.98 734.335 816.153 747.139 814.748C759.942 813.202 769.247 810.743 775.053 807.371C780.859 803.999 783.762 798.518 783.762 790.93V789.455C783.762 771.047 778.254 756.785 767.237 746.668C756.369 736.551 740.142 731.492 718.554 731.492C696.074 731.492 678.358 736.199 665.406 745.614C659.114 750.171 653.776 754.983 649.389 760.049C641.891 768.709 630.762 774.863 619.563 772.456L603.356 768.972C589.001 765.886 580.55 750.516 588.609 738.242C594.312 729.557 601.003 721.967 608.684 715.473C623.125 703.248 639.724 694.396 658.483 688.916C677.241 683.295 696.967 680.485 717.661 680.485C731.358 680.485 745.873 682.03 761.208 685.122C776.691 688.072 791.132 693.553 804.531 701.562C818.078 709.571 829.17 721.024 837.804 735.918C846.439 750.673 850.757 769.853 850.757 793.46V984.45C850.757 997.705 840.011 1008.45 826.757 1008.45H807.68C795.457 1008.45 785.549 998.541 785.549 986.319V965.86C785.549 964.936 784.8 964.187 783.876 964.187V964.187C783.256 964.187 782.689 964.53 782.391 965.073C778.079 972.918 771.762 980.632 763.441 988.215C754.806 996.084 743.715 1002.62 730.167 1007.82C716.619 1013.02 700.392 1015.62 681.484 1015.62ZM696 965.03C714.46 965.03 730.241 961.588 743.342 954.702C756.592 947.817 766.642 938.824 773.49 927.723C780.487 916.482 783.986 904.468 783.986 891.681V865.288C783.986 859.486 775.717 854.669 770.14 856.271V856.271C763.441 858.097 755.774 859.713 747.139 861.118C738.504 862.383 730.092 863.577 721.904 864.702C713.716 865.685 706.868 866.528 701.359 867.231C688.407 868.777 676.571 871.376 665.852 875.03C655.282 878.683 646.796 883.952 640.394 890.838C634.142 897.582 631.015 906.575 631.015 917.817C631.015 933.414 637.119 945.217 649.327 953.227C661.535 961.096 677.092 965.03 696 965.03Z" fill="white"/>
<path d="M963.692 1008.45C950.437 1008.45 939.692 997.705 939.692 984.45V708.7C939.692 695.445 950.437 684.7 963.692 684.7H982.463C995.718 684.7 1006.46 695.445 1006.46 708.7V984.45C1006.46 997.705 995.718 1008.45 982.463 1008.45H963.692ZM973.412 634.747C961.8 634.747 951.825 631.093 943.488 623.786C935.3 616.339 931.206 607.486 931.206 597.229C931.206 586.83 935.3 577.978 943.488 570.671C951.825 563.224 961.8 559.5 973.412 559.5C985.024 559.5 994.925 563.224 1003.11 570.671C1011.45 577.978 1015.62 586.83 1015.62 597.229C1015.62 607.486 1011.45 616.339 1003.11 623.786C994.925 631.093 985.024 634.747 973.412 634.747Z" fill="white"/>
</svg>
